<?xml version="1.0" standalone="no"?>
<!DOCTYPE svg PUBLIC "-//W3C//DTD SVG 20010904//EN"
 "http://www.w3.org/TR/2001/REC-SVG-20010904/DTD/svg10.dtd">
<svg version="1.0" xmlns="http://www.w3.org/2000/svg"
 width="176.000000pt" height="176.000000pt" viewBox="0 0 176.000000 176.000000"
 preserveAspectRatio="xMidYMid meet">
<metadata>
Created by potrace 1.14, written by Peter Selinger 2001-2017
</metadata>
<g transform="translate(0.000000,176.000000) scale(0.100000,-0.100000)"
fill="#000000" stroke="none">
<path d="M150 1581 c0 -5 12 -11 28 -14 53 -11 109 -60 151 -136 6 -10 22 -3
69 30 33 24 61 49 61 55 1 20 38 45 75 51 88 14 20 23 -174 23 -116 0 -210 -4
-210 -9z"/>
<path d="M736 1573 c-150 -25 -269 -88 -386 -203 -144 -140 -214 -318 -205
-515 5 -105 12 -136 44 -221 86 -222 289 -390 529 -439 46 -10 86 -15 89 -12
12 12 -9 25 -52 31 -66 10 -196 79 -261 139 -98 89 -187 252 -211 385 -14 81
-10 240 8 317 62 256 256 455 484 498 166 31 340 -18 466 -131 l49 -44 0 45
c0 44 -1 45 -57 74 -154 81 -320 106 -497 76z"/>
<path d="M1186 1581 c-3 -5 12 -11 33 -15 81 -13 118 -74 108 -176 -5 -47 -73
-260 -106 -335 -5 -11 -30 -81 -56 -155 -25 -74 -55 -157 -65 -185 -10 -27
-49 -134 -86 -237 -37 -104 -70 -188 -73 -188 -3 0 -39 80 -80 178 -41 97 -84
200 -97 227 -12 28 -50 118 -84 200 -34 83 -84 202 -110 265 -27 63 -55 133
-64 155 l-17 39 -23 -25 c-65 -70 -66 -53 30 -285 47 -115 112 -272 144 -349
61 -147 153 -369 175 -420 7 -16 24 -58 39 -91 14 -34 26 -67 26 -73 0 -6 6
-11 14 -11 9 0 34 57 69 157 31 87 72 203 92 258 20 55 40 111 45 125 16 50
99 279 175 485 84 229 129 327 172 376 30 35 95 68 131 69 12 0 22 5 22 10 0
13 -406 14 -414 1z"/>
<path d="M1386 1320 c-16 -40 -15 -42 13 -98 72 -143 98 -338 66 -492 -31
-149 -112 -293 -217 -384 -54 -47 -194 -124 -238 -130 -14 -1 -26 -10 -28 -19
-3 -14 3 -14 56 -2 147 34 255 96 369 211 90 91 149 194 180 314 22 87 22 245
0 330 -22 83 -77 196 -123 252 -53 63 -59 64 -78 18z"/>
</g>
</svg>
